<svg width="297" height="134" fill="none" xmlns="http://www.w3.org/2000/svg"><rect opacity=".2" x="2" y="130" width="250" height="4" rx="2" fill="#000"/><mask id="b" maskUnits="userSpaceOnUse" x="260" y="13" width="31" height="64" fill="#000"><path fill="#fff" d="M260 13h31v64h-31z"/><path fill-rule="evenodd" clip-rule="evenodd" d="M288 15h-10l-5 50h-11v10h12.76a8 8 0 0 0 7.96-7.204L288 15Z"/></mask><g filter="url(#a)"><path fill-rule="evenodd" clip-rule="evenodd" d="M288 15h-10l-5 50h-11v10h12.76a8 8 0 0 0 7.96-7.204L288 15Z" fill="#EEF1F4"/></g><path d="M278 15v-2h-1.81l-.18 1.801L278 15Zm10 0 1.99.199.22-2.199H288v2Zm-15 50v2h1.81l.18-1.801L273 65Zm-11 0v-2h-2v2h2Zm0 10h-2v2h2v-2Zm20.72-7.204 1.99.199-1.99-.199ZM278 17h10v-4h-10v4Zm-3.01 48.199 5-50-3.98-.398-5 50 3.98.398ZM262 67h11v-4h-11v4Zm2 8V65h-4v10h4Zm8-2h-10v4h10v-4Zm2 0h-2v4h2v-4Zm.76 0H274v4h.76v-4Zm5.97-5.403A5.999 5.999 0 0 1 274.76 73v4a10 10 0 0 0 9.95-9.005l-3.98-.398Zm5.28-52.796-5.28 52.796 3.98.398 5.28-52.796-3.98-.398Z" fill="#A4ABB3" mask="url(#b)"/><mask id="c" maskUnits="userSpaceOnUse" x="273.641" y="13" width="17" height="19" fill="#000"><path fill="#fff" d="M273.641 13h17v19h-17z"/><path fill-rule="evenodd" clip-rule="evenodd" d="M276.641 28.59 278 15h10l-1.458 14.58c-1.136.274-2.322.42-3.542.42-2.273 0-4.428-.506-6.359-1.41Z"/></mask><path fill-rule="evenodd" clip-rule="evenodd" d="M276.641 28.59 278 15h10l-1.458 14.58c-1.136.274-2.322.42-3.542.42-2.273 0-4.428-.506-6.359-1.41Z" fill="#000" fill-opacity=".2"/><path d="m276.641 28.59-1.99-.2-.141 1.41 1.282.6.849-1.81ZM278 15v-2h-1.81l-.18 1.801L278 15Zm10 0 1.99.199.22-2.199H288v2Zm-1.458 14.58.471 1.943 1.378-.334.141-1.41-1.99-.2Zm-7.911-.792L279.99 15.2l-3.98-.398-1.359 13.59 3.98.397ZM278 17h10v-4h-10v4Zm8.01-2.199-1.458 14.58 3.98.397L289.99 15.2l-3.98-.398Zm.062 12.835c-.983.237-2.011.364-3.072.364v4c1.38 0 2.724-.165 4.013-.477l-.941-3.887ZM283 28a12.94 12.94 0 0 1-5.51-1.222l-1.698 3.622A16.943 16.943 0 0 0 283 32v-4Z" fill="#000" fill-opacity=".097" mask="url(#c)"/><circle cx="283" cy="14" r="13" fill="#1A8CFF" stroke="#0B61B8" stroke-width="2"/><path opacity=".2" d="M291 14a8 8 0 0 0-8-8" stroke="#fff" stroke-width="2" stroke-linecap="round"/><g filter="url(#d)"><path d="M252 51h2a8 8 0 0 1 8 8v24a8 8 0 0 1-8 8h-2V51Z" fill="#EEF1F4"/></g><path d="M252 50h-1v42h3a9 9 0 0 0 9-9V59a9 9 0 0 0-9-9h-2Z" stroke="#A4ABB3" stroke-width="2"/><path fill="#5C6166" d="M18 26h219v91H18z"/><mask id="f" maskUnits="userSpaceOnUse" x="0" y="9" width="254" height="124" fill="#000"><path fill="#fff" d="M0 9h254v124H0z"/><path fill-rule="evenodd" clip-rule="evenodd" d="M2 21c0-5.523 4.477-10 10-10h230c5.523 0 10 4.477 10 10v100c0 5.523-4.477 10-10 10H12c-5.523 0-10-4.477-10-10V21Zm20 14a4 4 0 0 1 4-4h36a4 4 0 0 1 4 4v72a4 4 0 0 1-4 4H26a4 4 0 0 1-4-4V35Zm59-4a4 4 0 0 0-4 4v72a4 4 0 0 0 4 4h36a4 4 0 0 0 4-4V35a4 4 0 0 0-4-4H81Zm52 4a4 4 0 0 1 4-4h36a4 4 0 0 1 4 4v72a4 4 0 0 1-4 4h-36a4 4 0 0 1-4-4V35Zm59-4a4 4 0 0 0-4 4v72a4 4 0 0 0 4 4h36a4 4 0 0 0 4-4V35a4 4 0 0 0-4-4h-36Z"/></mask><g filter="url(#e)"><path fill-rule="evenodd" clip-rule="evenodd" d="M2 21c0-5.523 4.477-10 10-10h230c5.523 0 10 4.477 10 10v100c0 5.523-4.477 10-10 10H12c-5.523 0-10-4.477-10-10V21Zm20 14a4 4 0 0 1 4-4h36a4 4 0 0 1 4 4v72a4 4 0 0 1-4 4H26a4 4 0 0 1-4-4V35Zm59-4a4 4 0 0 0-4 4v72a4 4 0 0 0 4 4h36a4 4 0 0 0 4-4V35a4 4 0 0 0-4-4H81Zm52 4a4 4 0 0 1 4-4h36a4 4 0 0 1 4 4v72a4 4 0 0 1-4 4h-36a4 4 0 0 1-4-4V35Zm59-4a4 4 0 0 0-4 4v72a4 4 0 0 0 4 4h36a4 4 0 0 0 4-4V35a4 4 0 0 0-4-4h-36Z" fill="#EEF1F4"/></g><path d="M12 9C5.373 9 0 14.373 0 21h4a8 8 0 0 1 8-8V9Zm230 0H12v4h230V9Zm12 12c0-6.627-5.373-12-12-12v4a8 8 0 0 1 8 8h4Zm0 100V21h-4v100h4Zm-12 12c6.627 0 12-5.373 12-12h-4a8 8 0 0 1-8 8v4Zm-230 0h230v-4H12v4ZM0 121c0 6.627 5.373 12 12 12v-4a8 8 0 0 1-8-8H0ZM0 21v100h4V21H0Zm26 8a6 6 0 0 0-6 6h4a2 2 0 0 1 2-2v-4Zm36 0H26v4h36v-4Zm6 6a6 6 0 0 0-6-6v4a2 2 0 0 1 2 2h4Zm0 72V35h-4v72h4Zm-6 6a6 6 0 0 0 6-6h-4a2 2 0 0 1-2 2v4Zm-36 0h36v-4H26v4Zm-6-6a6 6 0 0 0 6 6v-4a2 2 0 0 1-2-2h-4Zm0-72v72h4V35h-4Zm59 0a2 2 0 0 1 2-2v-4a6 6 0 0 0-6 6h4Zm0 72V35h-4v72h4Zm2 2a2 2 0 0 1-2-2h-4a6 6 0 0 0 6 6v-4Zm36 0H81v4h36v-4Zm2-2a2 2 0 0 1-2 2v4a6 6 0 0 0 6-6h-4Zm0-72v72h4V35h-4Zm-2-2a2 2 0 0 1 2 2h4a6 6 0 0 0-6-6v4Zm-36 0h36v-4H81v4Zm56-4a6 6 0 0 0-6 6h4a2 2 0 0 1 2-2v-4Zm36 0h-36v4h36v-4Zm6 6a6 6 0 0 0-6-6v4a2 2 0 0 1 2 2h4Zm0 72V35h-4v72h4Zm-6 6a6 6 0 0 0 6-6h-4a2 2 0 0 1-2 2v4Zm-36 0h36v-4h-36v4Zm-6-6a6 6 0 0 0 6 6v-4a2 2 0 0 1-2-2h-4Zm0-72v72h4V35h-4Zm59 0a2 2 0 0 1 2-2v-4a6 6 0 0 0-6 6h4Zm0 72V35h-4v72h4Zm2 2a2 2 0 0 1-2-2h-4a6 6 0 0 0 6 6v-4Zm36 0h-36v4h36v-4Zm2-2a2 2 0 0 1-2 2v4a6 6 0 0 0 6-6h-4Zm0-72v72h4V35h-4Zm-2-2a2 2 0 0 1 2 2h4a6 6 0 0 0-6-6v4Zm-36 0h36v-4h-36v4Z" fill="#A4ABB3" mask="url(#f)"/><g filter="url(#g)"><path fill-rule="evenodd" clip-rule="evenodd" d="M137.401 36.455A1.936 1.936 0 0 1 139.298 35h31.404c.896 0 1.678.586 1.897 1.455C173.732 40.955 177 55.295 177 71c0 15.706-3.268 30.045-4.401 34.545a1.936 1.936 0 0 1-1.897 1.455h-31.404a1.936 1.936 0 0 1-1.897-1.455C136.268 101.045 133 86.705 133 71c0-15.706 3.268-30.045 4.401-34.545Z" fill="url(#h)"/></g><path d="M139.298 34.5c-1.116 0-2.105.733-2.382 1.833C135.779 40.849 132.5 55.234 132.5 71c0 15.766 3.279 30.151 4.416 34.667.277 1.1 1.266 1.833 2.382 1.833h31.404c1.116 0 2.105-.733 2.382-1.833 1.137-4.516 4.416-18.901 4.416-34.667 0-15.766-3.279-30.15-4.416-34.667-.277-1.1-1.266-1.833-2.382-1.833h-31.404Z" stroke="#000" stroke-opacity=".2"/><mask id="i" style="mask-type:alpha" maskUnits="userSpaceOnUse" x="132" y="34" width="46" height="74"><path fill-rule="evenodd" clip-rule="evenodd" d="M137.401 36.455A1.936 1.936 0 0 1 139.298 35h31.404c.896 0 1.678.586 1.897 1.455C173.732 40.955 177 55.295 177 71c0 15.706-3.268 30.045-4.401 34.545a1.936 1.936 0 0 1-1.897 1.455h-31.404a1.936 1.936 0 0 1-1.897-1.455C136.268 101.045 133 86.705 133 71c0-15.706 3.268-30.045 4.401-34.545Z" fill="#fff"/><path d="M139.298 34.5c-1.116 0-2.105.733-2.382 1.833C135.779 40.849 132.5 55.234 132.5 71c0 15.766 3.279 30.151 4.416 34.667.277 1.1 1.266 1.833 2.382 1.833h31.404c1.116 0 2.105-.733 2.382-1.833 1.137-4.516 4.416-18.901 4.416-34.667 0-15.766-3.279-30.15-4.416-34.667-.277-1.1-1.266-1.833-2.382-1.833h-31.404Z" stroke="#fff"/></mask><g mask="url(#i)" fill-rule="evenodd" clip-rule="evenodd" fill="#343434"><path opacity=".8" d="M155.525 39.208c.447 0 .839.123 1.183.37.353.248.645.592.874 1.034.239.441.398.953.47 1.535.067.539.038 1-.094 1.386a2.33 2.33 0 0 1-.713 1.005c-.347.285-.818.568-1.418.85l-.096 1.352c-.027.3-.225.45-.593.45-.379 0-.572-.15-.579-.45l-.037-1.86a.54.54 0 0 1 .057-.3.453.453 0 0 1 .204-.179l.558-.263c.422-.206.749-.4.984-.582a1.61 1.61 0 0 0 .497-.61c.098-.226.135-.492.114-.799-.033-.47-.177-.845-.425-1.127-.242-.281-.567-.422-.978-.422-.567 0-1.054.116-1.466.347l-.063.836c-.016.22-.069.376-.158.47-.091.094-.237.14-.437.14-.201 0-.337-.046-.409-.14-.071-.094-.092-.25-.064-.47l.152-1.193c.017-.131.044-.239.081-.324a.525.525 0 0 1 .149-.202c.703-.57 1.428-.854 2.207-.854Zm-.412 9.758c.393 0 .677.045.853.136a.49.49 0 0 1 .275.455l.028 1.071a.454.454 0 0 1-.269.456c-.187.09-.493.136-.919.136-.425 0-.731-.046-.915-.136-.182-.091-.267-.243-.256-.456l.059-1.07a.507.507 0 0 1 .287-.456c.179-.09.464-.136.857-.136ZM155.242 90.011c.823 0 1.535.126 2.128.38.583.252 1.008.611 1.275 1.076.256.465.336 1.01.246 1.634-.076.537-.267 1-.565 1.39-.29.39-.663.7-1.116.932.509.237.877.584 1.103 1.04.216.455.27 1.001.17 1.638a4.938 4.938 0 0 1-.633 1.797c-.3.519-.677.921-1.131 1.208a2.714 2.714 0 0 1-1.516.431c-.434 0-.877-.106-1.336-.318a5.289 5.289 0 0 1-1.317-.862.742.742 0 0 1-.274-.468 1.045 1.045 0 0 1 .064-.459c.097-.262.227-.393.387-.393.081 0 .17.04.268.122.354.306.721.547 1.104.725a2.6 2.6 0 0 0 1.119.267c.591 0 1.052-.182 1.393-.547.352-.366.564-.867.628-1.503.065-.643-.066-1.132-.401-1.466-.346-.334-.86-.5-1.533-.5h-.626c-.194 0-.334-.049-.42-.146-.086-.096-.134-.26-.142-.491-.009-.231.029-.395.112-.492.084-.097.229-.145.433-.145h.496c.686 0 1.214-.15 1.591-.45.385-.299.607-.736.657-1.31.047-.53-.112-.947-.484-1.25-.381-.303-.943-.454-1.681-.454-.792 0-1.46.121-1.996.365l.039.627c.013.219-.033.375-.137.468-.104.094-.287.14-.552.14-.265 0-.457-.046-.577-.14-.12-.093-.194-.25-.219-.468l-.117-1.02a.648.648 0 0 1 .03-.328c.036-.081.1-.15.191-.206.957-.55 2.079-.824 3.339-.824Z"/><path d="M161.526 66.074c.244 0 .418.056.521.167.104.11.156.299.156.564 0 .265-.052.453-.156.564-.103.11-.277.166-.521.166h-.257l-2.117 8.003c-.071.258-.177.439-.317.543-.139.103-.345.155-.617.155-.308 0-.55-.055-.725-.166-.176-.111-.306-.288-.392-.532l-1.644-4.662-1.665 4.662c-.086.244-.22.42-.403.532-.182.11-.428.166-.736.166-.272 0-.476-.052-.612-.155-.136-.104-.236-.285-.301-.543l-2.073-8.003h-.193c-.244 0-.418-.055-.521-.166-.104-.111-.156-.3-.156-.564 0-.265.052-.453.156-.564.103-.111.277-.167.521-.167h3.158c.243 0 .417.056.521.167.104.11.156.299.156.564 0 .265-.052.453-.156.564-.104.11-.278.166-.521.166h-1.321l1.546 6.252 1.794-4.984a.704.704 0 0 1 .28-.365c.136-.094.315-.14.537-.14.451 0 .727.143.827.43l1.783 5.06 1.59-6.253h-1.085c-.243 0-.417-.055-.521-.166-.104-.111-.156-.3-.156-.564 0-.265.052-.453.156-.564.104-.111.278-.167.521-.167h2.943Z"/></g><g filter="url(#j)"><path fill-rule="evenodd" clip-rule="evenodd" d="M81.401 36.455c.219-.869 1-1.455 1.897-1.455h31.404c.896 0 1.678.586 1.897 1.455C117.732 40.955 121 55.295 121 71c0 15.706-3.268 30.045-4.401 34.545a1.936 1.936 0 0 1-1.897 1.455H83.298a1.935 1.935 0 0 1-1.897-1.455C80.268 101.045 77 86.705 77 71c0-15.706 3.268-30.045 4.401-34.545Z" fill="url(#k)"/></g><path d="M83.298 34.5c-1.116 0-2.105.733-2.382 1.833C79.78 40.849 76.5 55.234 76.5 71c0 15.766 3.279 30.151 4.416 34.667.277 1.1 1.266 1.833 2.382 1.833h31.404c1.116 0 2.105-.733 2.382-1.833 1.137-4.516 4.416-18.901 4.416-34.667 0-15.766-3.279-30.15-4.416-34.667-.277-1.1-1.266-1.833-2.382-1.833H83.298Z" stroke="#000" stroke-opacity=".2"/><path fill-rule="evenodd" clip-rule="evenodd" d="M102.507 64.249c.243 0 .417.056.521.166.104.111.156.3.156.564 0 .18-.036.32-.108.42l-7.122 10.14h5.715v-2.89c0-.25.061-.43.183-.537.121-.107.329-.16.623-.16.293 0 .501.053.623.16.121.108.182.287.182.537v3.62c0 .265-.052.453-.155.564-.104.112-.278.167-.521.167h-8.229c-.243 0-.417-.055-.521-.166-.104-.112-.156-.3-.156-.565 0-.157.05-.311.15-.461l7.08-10.098h-5.393v2.675c0 .25-.06.43-.182.537-.122.107-.33.161-.623.161-.294 0-.502-.054-.624-.161-.121-.108-.182-.287-.182-.537v-3.406c0-.264.052-.453.156-.564.103-.11.277-.166.52-.166h7.907Z" fill="#333"/><path opacity=".8" fill-rule="evenodd" clip-rule="evenodd" d="M101.701 92.692a2.98 2.98 0 0 1 1.462.354c.248.142.348.325.303.55a1.17 1.17 0 0 1-.164.372c-.203.337-.424.505-.664.505a.489.489 0 0 1-.261-.07 2.067 2.067 0 0 0-.997-.24c-.592 0-1.2.185-1.81.554a4.138 4.138 0 0 0-1.418 1.476 3.726 3.726 0 0 0-.451 1.96l.068 1.719h2.541c.171 0 .288.046.35.137.061.092.078.247.051.466-.027.218-.081.373-.161.465-.079.092-.198.137-.358.137h-4.54c-.16 0-.283-.045-.368-.137-.086-.092-.15-.247-.192-.465-.041-.219-.034-.374.02-.466.057-.091.17-.137.341-.137h1.184l-.58-5.78H94.8c-.225 0-.392-.046-.504-.137-.112-.092-.188-.247-.227-.466-.039-.218-.016-.374.067-.465.085-.092.245-.138.48-.138h2.118c.235 0 .406.046.51.138.104.091.16.247.17.465l.078 1.79c.285-.52.65-.974 1.097-1.364a5.35 5.35 0 0 1 1.501-.904 4.439 4.439 0 0 1 1.61-.32ZM101.414 40.08c.154 0 .272.048.354.143.083.095.145.256.185.483l.617 3.468c.039.215.018.368-.061.46-.08.092-.237.138-.469.138-.232 0-.402-.046-.51-.138-.107-.092-.174-.245-.201-.46l-.351-2.843h-1.935l.229 8.418h2.428c.233 0 .406.047.518.142.112.096.184.257.215.483.031.227.001.388-.09.483-.091.096-.259.143-.502.143h-6.682c-.243 0-.41-.047-.502-.143-.09-.095-.12-.256-.09-.483.03-.227.103-.388.215-.483.112-.095.285-.142.518-.142h2.428l.229-8.418h-1.935l-.351 2.843c-.027.215-.093.368-.2.46-.109.092-.279.138-.51.138-.233 0-.39-.046-.47-.138-.079-.092-.1-.245-.061-.46l.617-3.468c.04-.227.102-.388.185-.483.082-.095.2-.143.354-.143h5.828Z" fill="#333"/><g filter="url(#l)"><path fill-rule="evenodd" clip-rule="evenodd" d="M26.401 36.455c.219-.869 1-1.455 1.897-1.455h31.404c.896 0 1.678.586 1.897 1.455C62.732 40.955 66 55.295 66 71c0 15.706-3.268 30.045-4.401 34.545-.219.869-1 1.455-1.897 1.455H28.298a1.935 1.935 0 0 1-1.897-1.455C25.268 101.045 22 86.705 22 71c0-15.706 3.268-30.045 4.401-34.545Z" fill="url(#m)"/></g><path d="M28.298 34.5c-1.116 0-2.105.733-2.382 1.833C24.78 40.849 21.5 55.234 21.5 71c0 15.766 3.279 30.151 4.416 34.667.277 1.1 1.266 1.833 2.382 1.833h31.404c1.116 0 2.105-.733 2.382-1.833C63.22 101.151 66.5 86.766 66.5 71c0-15.766-3.279-30.15-4.416-34.667-.277-1.1-1.266-1.833-2.382-1.833H28.298Z" stroke="#000" stroke-opacity=".2"/><path fill-rule="evenodd" clip-rule="evenodd" d="M43 64.513c.745 0 1.42.155 2.025.467.605.311 1.08.74 1.423 1.284.344.544.516 1.142.516 1.794 0 .58-.165 1.099-.494 1.557-.33.459-.76.831-1.29 1.117.667.301 1.2.72 1.601 1.257.401.537.602 1.157.602 1.859 0 .737-.19 1.401-.57 1.992a3.922 3.922 0 0 1-1.568 1.391c-.666.337-1.414.505-2.245.505-.83 0-1.58-.168-2.245-.505a3.922 3.922 0 0 1-1.569-1.39 3.608 3.608 0 0 1-.569-1.993c0-.702.2-1.322.602-1.859.4-.537.93-.956 1.59-1.257a3.709 3.709 0 0 1-1.284-1.117 2.623 2.623 0 0 1-.489-1.557c0-.652.172-1.25.516-1.794a3.584 3.584 0 0 1 1.423-1.284c.605-.312 1.28-.467 2.025-.467Zm0 1.59c-.444 0-.84.08-1.187.241a1.95 1.95 0 0 0-.822.693c-.2.3-.3.652-.3 1.053 0 .365.1.698.3.999.2.3.478.537.833.709.354.172.746.258 1.176.258.43 0 .822-.086 1.176-.258a2.05 2.05 0 0 0 .833-.71c.2-.3.3-.633.3-.998 0-.401-.1-.752-.3-1.053a1.95 1.95 0 0 0-.822-.693A2.79 2.79 0 0 0 43 66.103Zm0 5.446c-.523 0-.985.096-1.386.29a2.264 2.264 0 0 0-.94.81 2.13 2.13 0 0 0-.338 1.188c0 .444.113.841.338 1.192.226.351.54.625.94.822.401.197.863.296 1.386.296.523 0 .985-.099 1.386-.296.4-.197.714-.47.94-.822.225-.35.338-.748.338-1.192 0-.444-.113-.84-.338-1.187a2.264 2.264 0 0 0-.94-.811c-.401-.194-.863-.29-1.386-.29Z" fill="#333"/><path opacity=".7" fill-rule="evenodd" clip-rule="evenodd" d="M43.4 93.422c.215 0 .367.049.458.145.09.097.132.261.129.492l-.102 6.741h2.353c.167 0 .28.048.338.145.059.097.073.26.044.491-.03.231-.084.395-.163.492-.08.097-.198.145-.356.145h-5.46c-.158 0-.277-.048-.357-.145-.081-.097-.137-.261-.169-.492-.032-.231-.019-.394.038-.491.058-.097.17-.145.337-.145h2.295l-.172-6.104H40.31c-.206 0-.358-.049-.458-.145-.1-.097-.163-.261-.19-.492-.028-.231-.002-.395.077-.492.08-.096.228-.145.442-.145H43.4Zm-.353-4.11c.39 0 .657.046.797.136.14.09.209.248.206.473l-.019 1.217c-.003.225-.072.382-.207.473-.133.09-.382.135-.747.135s-.615-.045-.75-.135c-.137-.09-.21-.248-.22-.473l-.048-1.217c-.009-.225.056-.382.194-.473.138-.09.403-.136.794-.136ZM46.402 40.205c.164 0 .288.047.374.141.087.094.15.253.189.478.039.224.03.383-.027.477-.058.094-.173.14-.346.14h-.55l1.083 8.322h.745c.234 0 .409.047.525.141.116.094.194.253.234.478.039.224.015.383-.072.477-.088.094-.254.141-.498.141h-3.373c-.243 0-.419-.047-.526-.141-.106-.094-.162-.253-.17-.477-.006-.225.04-.384.137-.478.096-.094.262-.14.496-.14h.951l-.3-3.711h-4.547l-.301 3.71h.95c.235 0 .4.047.497.141.098.094.143.253.136.478-.007.224-.063.383-.17.477-.107.094-.282.141-.526.141H37.94c-.243 0-.409-.047-.497-.141-.087-.094-.11-.253-.072-.477.04-.225.117-.384.234-.478.116-.094.29-.14.525-.14h.745l1.082-8.322h-.55c-.172 0-.288-.047-.345-.141-.057-.094-.066-.253-.027-.477.039-.225.102-.384.188-.478.086-.094.21-.14.375-.14h2.268c.163 0 .279.046.345.14.067.094.098.253.09.478-.006.224-.047.383-.124.477-.077.094-.202.14-.374.14H41.1l-.274 3.375h4.346l-.274-3.374h-.702c-.173 0-.298-.047-.375-.141-.076-.094-.117-.253-.124-.477-.007-.225.023-.384.09-.478.067-.094.182-.14.346-.14h2.268Z" fill="#333"/><g filter="url(#n)"><path fill-rule="evenodd" clip-rule="evenodd" d="M192.401 36.455A1.936 1.936 0 0 1 194.298 35h31.404c.896 0 1.678.586 1.897 1.455C228.732 40.955 232 55.295 232 71c0 15.706-3.268 30.045-4.401 34.545a1.936 1.936 0 0 1-1.897 1.455h-31.404a1.936 1.936 0 0 1-1.897-1.455C191.268 101.045 188 86.705 188 71c0-15.706 3.268-30.045 4.401-34.545Z" fill="url(#o)"/></g><path d="M194.298 34.5c-1.116 0-2.105.733-2.382 1.833C190.779 40.849 187.5 55.234 187.5 71c0 15.766 3.279 30.151 4.416 34.667.277 1.1 1.266 1.833 2.382 1.833h31.404c1.116 0 2.105-.733 2.382-1.833 1.137-4.516 4.416-18.901 4.416-34.667 0-15.766-3.279-30.15-4.416-34.667-.277-1.1-1.266-1.833-2.382-1.833h-31.404Z" stroke="#000" stroke-opacity=".2"/><mask id="p" style="mask-type:alpha" maskUnits="userSpaceOnUse" x="187" y="34" width="46" height="74"><path fill-rule="evenodd" clip-rule="evenodd" d="M192.401 36.455A1.936 1.936 0 0 1 194.298 35h31.404c.896 0 1.678.586 1.897 1.455C228.732 40.955 232 55.295 232 71c0 15.706-3.268 30.045-4.401 34.545a1.936 1.936 0 0 1-1.897 1.455h-31.404a1.936 1.936 0 0 1-1.897-1.455C191.268 101.045 188 86.705 188 71c0-15.706 3.268-30.045 4.401-34.545Z" fill="#fff"/><path d="M194.298 34.5c-1.116 0-2.105.733-2.382 1.833C190.779 40.849 187.5 55.234 187.5 71c0 15.766 3.279 30.151 4.416 34.667.277 1.1 1.266 1.833 2.382 1.833h31.404c1.116 0 2.105-.733 2.382-1.833 1.137-4.516 4.416-18.901 4.416-34.667 0-15.766-3.279-30.15-4.416-34.667-.277-1.1-1.266-1.833-2.382-1.833h-31.404Z" stroke="#fff"/></mask><g mask="url(#p)" fill-rule="evenodd" clip-rule="evenodd" fill="#333"><path opacity=".8" d="M210 91.011c1.117 0 2.089.238 2.898.714a3.866 3.866 0 0 1 1.664 2.007c.299.862.349 1.859.167 2.99-.182 1.13-.524 2.127-1.01 2.99-.463.862-1.017 1.529-1.663 2.002-.623.473-1.302.709-2.056.709s-1.433-.236-2.056-.709c-.646-.473-1.2-1.14-1.663-2.003-.486-.862-.828-1.858-1.01-2.99-.182-1.13-.132-2.127.167-2.99a3.866 3.866 0 0 1 1.664-2.006c.809-.476 1.781-.714 2.898-.714Zm0 1.372c-.757 0-1.415.176-1.965.528-.539.353-.926.856-1.162 1.511-.223.656-.281 1.422-.182 2.3.099.877.314 1.642.636 2.294.31.652.696 1.154 1.158 1.507.451.352.953.528 1.515.528.562 0 1.064-.176 1.515-.528.462-.353.848-.855 1.158-1.507.322-.652.537-1.417.636-2.294.099-.878.041-1.644-.182-2.3-.236-.655-.623-1.158-1.162-1.51-.55-.353-1.208-.529-1.965-.529ZM212.653 41.025c.171 0 .298.048.381.145.084.097.139.26.164.491.017.15.015.274-.005.374l-3.371 9.87a.65.65 0 0 1-.301.322 1.061 1.061 0 0 1-.493.108c-.254 0-.458-.045-.613-.136-.153-.09-.227-.21-.22-.36a.525.525 0 0 1 .063-.234l3.625-9.308h-3.734l-.086 1.366c-.014.218-.071.374-.172.468-.101.093-.267.14-.497.14-.23 0-.388-.047-.474-.14-.085-.094-.116-.25-.094-.468l.207-2.002c.023-.23.077-.394.16-.491.083-.097.209-.145.38-.145h5.08Z"/><path d="M210.279 63.906c.244 0 .417.056.521.167.104.11.156.299.156.564v11.902h3.448c.244 0 .417.056.521.167.104.11.156.299.156.563 0 .265-.052.453-.156.564-.104.112-.277.167-.521.167h-8.422c-.243 0-.417-.055-.521-.166-.103-.112-.155-.3-.155-.565 0-.264.052-.452.155-.563.104-.111.278-.167.521-.167h3.363V65.367h-2.933c-.243 0-.417-.055-.521-.166-.104-.111-.156-.3-.156-.564 0-.265.052-.453.156-.564.104-.111.278-.167.521-.167h3.867Z"/></g><defs><filter id="a" x="260" y="13" width="30.21" height="64" filterUnits="userSpaceOnUse" color-interpolation-filters="sRGB"><feFlood flood-opacity="0" result="BackgroundImageFix"/><feBlend in="SourceGraphic" in2="BackgroundImageFix" result="shape"/><feColorMatrix in="SourceAlpha" values="0 0 0 0 0 0 0 0 0 0 0 0 0 0 0 0 0 0 127 0" result="hardAlpha"/><feOffset dy="3"/><feComposite in2="hardAlpha" operator="arithmetic" k2="-1" k3="1"/><feColorMatrix values="0 0 0 0 1 0 0 0 0 1 0 0 0 0 1 0 0 0 0.5 0"/><feBlend in2="shape" result="effect1_innerShadow_0_842"/><feColorMatrix in="SourceAlpha" values="0 0 0 0 0 0 0 0 0 0 0 0 0 0 0 0 0 0 127 0" result="hardAlpha"/><feOffset dy="-3"/><feComposite in2="hardAlpha" operator="arithmetic" k2="-1" k3="1"/><feColorMatrix values="0 0 0 0 0 0 0 0 0 0 0 0 0 0 0 0 0 0 0.102723 0"/><feBlend in2="effect1_innerShadow_0_842" result="effect2_innerShadow_0_842"/></filter><filter id="d" x="250" y="47" width="14" height="48" filterUnits="userSpaceOnUse" color-interpolation-filters="sRGB"><feFlood flood-opacity="0" result="BackgroundImageFix"/><feBlend in="SourceGraphic" in2="BackgroundImageFix" result="shape"/><feColorMatrix in="SourceAlpha" values="0 0 0 0 0 0 0 0 0 0 0 0 0 0 0 0 0 0 127 0" result="hardAlpha"/><feMorphology radius="2" in="SourceAlpha" result="effect1_innerShadow_0_842"/><feOffset dy="3"/><feComposite in2="hardAlpha" operator="arithmetic" k2="-1" k3="1"/><feColorMatrix values="0 0 0 0 1 0 0 0 0 1 0 0 0 0 1 0 0 0 0.5 0"/><feBlend in2="shape" result="effect1_innerShadow_0_842"/><feColorMatrix in="SourceAlpha" values="0 0 0 0 0 0 0 0 0 0 0 0 0 0 0 0 0 0 127 0" result="hardAlpha"/><feMorphology radius="2" in="SourceAlpha" result="effect2_innerShadow_0_842"/><feOffset dy="-3"/><feComposite in2="hardAlpha" operator="arithmetic" k2="-1" k3="1"/><feColorMatrix values="0 0 0 0 0 0 0 0 0 0 0 0 0 0 0 0 0 0 0.102723 0"/><feBlend in2="effect1_innerShadow_0_842" result="effect2_innerShadow_0_842"/></filter><filter id="e" x="0" y="9" width="254" height="124" filterUnits="userSpaceOnUse" color-interpolation-filters="sRGB"><feFlood flood-opacity="0" result="BackgroundImageFix"/><feBlend in="SourceGraphic" in2="BackgroundImageFix" result="shape"/><feColorMatrix in="SourceAlpha" values="0 0 0 0 0 0 0 0 0 0 0 0 0 0 0 0 0 0 127 0" result="hardAlpha"/><feOffset dy="3"/><feComposite in2="hardAlpha" operator="arithmetic" k2="-1" k3="1"/><feColorMatrix values="0 0 0 0 1 0 0 0 0 1 0 0 0 0 1 0 0 0 0.5 0"/><feBlend in2="shape" result="effect1_innerShadow_0_842"/><feColorMatrix in="SourceAlpha" values="0 0 0 0 0 0 0 0 0 0 0 0 0 0 0 0 0 0 127 0" result="hardAlpha"/><feOffset dy="-3"/><feComposite in2="hardAlpha" operator="arithmetic" k2="-1" k3="1"/><feColorMatrix values="0 0 0 0 0 0 0 0 0 0 0 0 0 0 0 0 0 0 0.102723 0"/><feBlend in2="effect1_innerShadow_0_842" result="effect2_innerShadow_0_842"/></filter><filter id="g" x="132" y="34" width="46" height="74" filterUnits="userSpaceOnUse" color-interpolation-filters="sRGB"><feFlood flood-opacity="0" result="BackgroundImageFix"/><feBlend in="SourceGraphic" in2="BackgroundImageFix" result="shape"/><feColorMatrix in="SourceAlpha" values="0 0 0 0 0 0 0 0 0 0 0 0 0 0 0 0 0 0 127 0" result="hardAlpha"/><feOffset dy="2"/><feComposite in2="hardAlpha" operator="arithmetic" k2="-1" k3="1"/><feColorMatrix values="0 0 0 0 0 0 0 0 0 0 0 0 0 0 0 0 0 0 0.10377 0"/><feBlend in2="shape" result="effect1_innerShadow_0_842"/><feColorMatrix in="SourceAlpha" values="0 0 0 0 0 0 0 0 0 0 0 0 0 0 0 0 0 0 127 0" result="hardAlpha"/><feOffset dy="-2"/><feComposite in2="hardAlpha" operator="arithmetic" k2="-1" k3="1"/><feColorMatrix values="0 0 0 0 0 0 0 0 0 0 0 0 0 0 0 0 0 0 0.10261 0"/><feBlend in2="effect1_innerShadow_0_842" result="effect2_innerShadow_0_842"/></filter><filter id="j" x="76" y="34" width="46" height="74" filterUnits="userSpaceOnUse" color-interpolation-filters="sRGB"><feFlood flood-opacity="0" result="BackgroundImageFix"/><feBlend in="SourceGraphic" in2="BackgroundImageFix" result="shape"/><feColorMatrix in="SourceAlpha" values="0 0 0 0 0 0 0 0 0 0 0 0 0 0 0 0 0 0 127 0" result="hardAlpha"/><feOffset dy="2"/><feComposite in2="hardAlpha" operator="arithmetic" k2="-1" k3="1"/><feColorMatrix values="0 0 0 0 0 0 0 0 0 0 0 0 0 0 0 0 0 0 0.10377 0"/><feBlend in2="shape" result="effect1_innerShadow_0_842"/><feColorMatrix in="SourceAlpha" values="0 0 0 0 0 0 0 0 0 0 0 0 0 0 0 0 0 0 127 0" result="hardAlpha"/><feOffset dy="-2"/><feComposite in2="hardAlpha" operator="arithmetic" k2="-1" k3="1"/><feColorMatrix values="0 0 0 0 0 0 0 0 0 0 0 0 0 0 0 0 0 0 0.10261 0"/><feBlend in2="effect1_innerShadow_0_842" result="effect2_innerShadow_0_842"/></filter><filter id="l" x="21" y="34" width="46" height="74" filterUnits="userSpaceOnUse" color-interpolation-filters="sRGB"><feFlood flood-opacity="0" result="BackgroundImageFix"/><feBlend in="SourceGraphic" in2="BackgroundImageFix" result="shape"/><feColorMatrix in="SourceAlpha" values="0 0 0 0 0 0 0 0 0 0 0 0 0 0 0 0 0 0 127 0" result="hardAlpha"/><feOffset dy="2"/><feComposite in2="hardAlpha" operator="arithmetic" k2="-1" k3="1"/><feColorMatrix values="0 0 0 0 0 0 0 0 0 0 0 0 0 0 0 0 0 0 0.10377 0"/><feBlend in2="shape" result="effect1_innerShadow_0_842"/><feColorMatrix in="SourceAlpha" values="0 0 0 0 0 0 0 0 0 0 0 0 0 0 0 0 0 0 127 0" result="hardAlpha"/><feOffset dy="-2"/><feComposite in2="hardAlpha" operator="arithmetic" k2="-1" k3="1"/><feColorMatrix values="0 0 0 0 0 0 0 0 0 0 0 0 0 0 0 0 0 0 0.10261 0"/><feBlend in2="effect1_innerShadow_0_842" result="effect2_innerShadow_0_842"/></filter><filter id="n" x="187" y="34" width="46" height="74" filterUnits="userSpaceOnUse" color-interpolation-filters="sRGB"><feFlood flood-opacity="0" result="BackgroundImageFix"/><feBlend in="SourceGraphic" in2="BackgroundImageFix" result="shape"/><feColorMatrix in="SourceAlpha" values="0 0 0 0 0 0 0 0 0 0 0 0 0 0 0 0 0 0 127 0" result="hardAlpha"/><feOffset dy="2"/><feComposite in2="hardAlpha" operator="arithmetic" k2="-1" k3="1"/><feColorMatrix values="0 0 0 0 0 0 0 0 0 0 0 0 0 0 0 0 0 0 0.10377 0"/><feBlend in2="shape" result="effect1_innerShadow_0_842"/><feColorMatrix in="SourceAlpha" values="0 0 0 0 0 0 0 0 0 0 0 0 0 0 0 0 0 0 127 0" result="hardAlpha"/><feOffset dy="-2"/><feComposite in2="hardAlpha" operator="arithmetic" k2="-1" k3="1"/><feColorMatrix values="0 0 0 0 0 0 0 0 0 0 0 0 0 0 0 0 0 0 0.10261 0"/><feBlend in2="effect1_innerShadow_0_842" result="effect2_innerShadow_0_842"/></filter><linearGradient id="h" x1="134.49" y1="38.299" x2="134.49" y2="105.421" gradientUnits="userSpaceOnUse"><stop stop-color="#F0F0F0"/><stop offset=".497" stop-color="#fff"/><stop offset="1" stop-color="#F0F0F0"/></linearGradient><linearGradient id="k" x1="78.49" y1="38.299" x2="78.49" y2="105.421" gradientUnits="userSpaceOnUse"><stop stop-color="#F0F0F0"/><stop offset=".497" stop-color="#fff"/><stop offset="1" stop-color="#F0F0F0"/></linearGradient><linearGradient id="m" x1="23.49" y1="38.299" x2="23.49" y2="105.421" gradientUnits="userSpaceOnUse"><stop stop-color="#F0F0F0"/><stop offset=".497" stop-color="#fff"/><stop offset="1" stop-color="#F0F0F0"/></linearGradient><linearGradient id="o" x1="189.49" y1="38.299" x2="189.49" y2="105.421" gradientUnits="userSpaceOnUse"><stop stop-color="#F0F0F0"/><stop offset=".497" stop-color="#fff"/><stop offset="1" stop-color="#F0F0F0"/></linearGradient></defs></svg>